<?xml version="1.0" encoding="utf-8"?>
<!-- Generator: Adobe Illustrator 19.0.1, SVG Export Plug-In . SVG Version: 6.00 Build 0)  -->
<!DOCTYPE svg PUBLIC "-//W3C//DTD SVG 1.1//EN" "http://www.w3.org/Graphics/SVG/1.1/DTD/svg11.dtd">
<svg version="1.1" id="Layer_1" xmlns="http://www.w3.org/2000/svg" xmlns:xlink="http://www.w3.org/1999/xlink" x="0px" y="0px"
	 viewBox="0 0 880.1 217.1" style="enable-background:new 0 0 880.1 217.1;" xml:space="preserve">
<g>
	<g>
		<path d="M21.3,183h29.2v-58h57.7V98.3H50.2V61.5h65.1V34h-94V183z M193.4,34h-29v149h95.3v-27.7h-66.3V34z M369.9,30.9
			c-40.3,0-76.4,29.6-76.4,77.8c0,47.9,36.1,77.6,76.4,77.6c40.5,0,76.6-29.6,76.6-77.6C446.5,60.5,410.4,30.9,369.9,30.9z
			 M369.9,158c-22.9,0-46.4-16-46.4-49.6c0-33.6,23.5-49.6,46.4-49.6c23.1,0,46.6,16,46.6,49.6C416.5,142.1,393,158,369.9,158z
			 M564.4,30.9c-40.3,0-76.4,29.6-76.4,77.8c0,47.9,36.1,77.6,76.4,77.6c40.5,0,76.6-29.6,76.6-77.6C641,60.5,604.9,30.9,564.4,30.9
			z M564.4,158c-22.9,0-46.4-16-46.4-49.6c0-33.6,23.5-49.6,46.4-49.6c23.1,0,46.6,16,46.6,49.6C611,142.1,587.5,158,564.4,158z
			 M817.9,34l-43.6,107.6L729.6,34h-38.2v149h27.7V79.4L761.9,183H786l42.8-104.5V183h28.5V34H817.9z"/>
	</g>
</g>
</svg>
